<svg width="880" height="1100" viewBox="0 0 880 1100" fill="none" xmlns="http://www.w3.org/2000/svg">
  <rect width="880" height="1100" fill="#111214"/>
  <rect x="48" y="48" width="784" height="1004" stroke="#2A2F36"/>
  <ellipse cx="448" cy="228" rx="134" ry="156" fill="#2A2D31"/>
  <path d="M305 240C332 168 385 116 448 116C510 116 563 168 590 240C563 297 509 333 448 333C386 333 332 297 305 240Z" fill="#3B4048"/>
  <path d="M350 206C374 171 408 147 448 147C487 147 522 171 546 206C522 237 487 258 448 258C408 258 374 237 350 206Z" fill="#191B1E" fill-opacity="0.9"/>
  <path d="M310 504C310 419 371 350 447 350C523 350 584 419 584 504V552H310V504Z" fill="#25292E"/>
  <path d="M232 1034V754C232 659 309 582 404 582H490C585 582 662 659 662 754V1034H232Z" fill="#2E333A"/>
  <path d="M278 1034V777C278 709 333 654 401 654H493C561 654 616 709 616 777V1034H278Z" fill="#1B1E22"/>
  <path d="M410 580H484V680C484 705 468 725 447 725C426 725 410 705 410 680V580Z" fill="#3A3F46"/>
  <path d="M325 900C362 855 404 832 448 832C492 832 533 855 570 900" stroke="#444B54" stroke-width="18" stroke-linecap="round"/>
</svg>
