<svg xmlns="http://www.w3.org/2000/svg" xmlns:xlink="http://www.w3.org/1999/xlink" width="3440" zoomAndPan="magnify" viewBox="0 0 2580 1079.999946" height="1440" preserveAspectRatio="xMidYMid meet" version="1.0"><defs><g/><clipPath id="4a1f10afaa"><rect x="0" width="280" y="0" height="419"/></clipPath></defs><g fill="#f5f5f5" fill-opacity="1"><g transform="translate(372.279053, 680.999918)"><g><path d="M 80.152344 -114.398438 L 205.460938 -114.398438 L 205.460938 -164.070312 L 80.152344 -164.070312 L 80.152344 -218.257812 L 219.386719 -218.257812 L 219.386719 -267.929688 L 24.460938 -267.929688 L 24.460938 0 L 223.148438 0 L 223.148438 -49.671875 L 80.152344 -49.671875 Z M 80.152344 -114.398438 "/></g></g></g><g fill="#f5f5f5" fill-opacity="1"><g transform="translate(610.479699, 680.999918)"><g><path d="M 240.835938 -199.066406 C 214.492188 -199.066406 196.054688 -187.777344 183.636719 -164.070312 C 174.980469 -185.894531 155.789062 -199.066406 127.945312 -199.066406 C 104.613281 -199.066406 87.304688 -189.28125 75.261719 -169.335938 L 74.507812 -194.171875 L 22.578125 -194.171875 L 22.578125 0 L 75.636719 0 L 75.636719 -103.859375 C 75.636719 -132.835938 89.5625 -151.273438 110.257812 -151.273438 C 128.695312 -151.273438 136.222656 -136.597656 136.222656 -119.289062 L 136.222656 0 L 189.28125 0 L 189.28125 -103.859375 C 189.28125 -132.835938 203.203125 -151.273438 223.902344 -151.273438 C 242.339844 -151.273438 249.867188 -136.597656 249.867188 -119.289062 L 249.867188 0 L 302.925781 0 L 302.925781 -129.824219 C 302.925781 -170.464844 281.101562 -199.066406 240.835938 -199.066406 Z M 240.835938 -199.066406 "/></g></g></g><g fill="#f5f5f5" fill-opacity="1"><g transform="translate(935.982916, 680.999918)"><g><path d="M 132.082031 -199.066406 C 104.613281 -199.066406 84.667969 -188.90625 71.496094 -168.960938 L 69.617188 -194.171875 L 22.578125 -194.171875 L 22.578125 76.765625 L 75.636719 76.765625 L 75.636719 -18.0625 C 88.433594 -1.882812 106.496094 6.398438 127.945312 6.398438 C 176.863281 6.398438 211.484375 -35.371094 211.484375 -97.839844 C 211.484375 -161.433594 176.109375 -199.066406 132.082031 -199.066406 Z M 116.65625 -40.265625 C 91.066406 -40.265625 73.003906 -62.84375 73.003906 -97.839844 C 73.003906 -132.835938 91.066406 -155.039062 116.65625 -155.039062 C 142.242188 -155.039062 160.304688 -133.210938 160.304688 -97.839844 C 160.304688 -62.089844 142.242188 -40.265625 116.65625 -40.265625 Z M 116.65625 -40.265625 "/></g></g></g><g fill="#f5f5f5" fill-opacity="1"><g transform="translate(1159.507706, 680.999918)"><g><path d="M 194.550781 0 C 188.90625 -9.785156 187.023438 -22.578125 187.023438 -40.640625 L 187.023438 -126.4375 C 187.023438 -174.230469 158.800781 -198.6875 103.109375 -198.6875 C 50.800781 -198.6875 24.082031 -178.746094 20.320312 -136.222656 L 68.863281 -135.46875 C 71.496094 -153.53125 81.65625 -161.058594 103.484375 -161.058594 C 124.558594 -161.058594 136.222656 -154.285156 136.222656 -139.984375 L 136.222656 -125.6875 L 68.488281 -112.140625 C 29.351562 -104.238281 9.40625 -84.292969 9.40625 -53.433594 C 9.40625 -18.0625 35.75 5.644531 76.765625 5.644531 C 102.355469 5.644531 123.429688 -3.761719 136.597656 -19.566406 C 137.726562 -12.792969 139.234375 -6.773438 140.738281 0 Z M 91.820312 -33.492188 C 72.25 -33.492188 61.335938 -42.898438 61.335938 -56.820312 C 61.335938 -69.617188 70.367188 -77.894531 86.550781 -81.28125 L 136.222656 -91.820312 L 136.222656 -77.519531 C 136.222656 -48.917969 117.03125 -33.492188 91.820312 -33.492188 Z M 91.820312 -33.492188 "/></g></g></g><g fill="#f5f5f5" fill-opacity="1"><g transform="translate(1369.109159, 680.999918)"><g><path d="M 121.171875 -155.039062 L 121.171875 -194.171875 L 85.046875 -193.042969 L 85.046875 -254.003906 L 31.984375 -254.003906 L 31.984375 -193.421875 L 5.644531 -194.171875 L 5.644531 -155.039062 L 31.984375 -156.167969 L 31.984375 -54.5625 C 31.984375 -15.429688 47.414062 0 86.550781 0 L 121.171875 0 L 121.171875 -42.523438 L 103.484375 -42.523438 C 90.3125 -42.523438 85.046875 -47.789062 85.046875 -60.960938 L 85.046875 -156.167969 Z M 121.171875 -155.039062 "/></g></g></g><g fill="#f5f5f5" fill-opacity="1"><g transform="translate(1497.805285, 680.999918)"><g><path d="M 131.332031 -199.066406 C 106.496094 -199.066406 88.433594 -188.90625 75.636719 -168.207031 L 75.636719 -267.929688 L 22.578125 -267.929688 L 22.578125 0 L 75.636719 0 L 75.636719 -103.859375 C 75.636719 -132.835938 91.066406 -151.273438 113.644531 -151.273438 C 132.460938 -151.273438 141.867188 -138.480469 141.867188 -118.160156 L 141.867188 0 L 194.925781 0 L 194.925781 -130.203125 C 194.925781 -172.347656 171.59375 -199.066406 131.332031 -199.066406 Z M 131.332031 -199.066406 "/></g></g></g><g fill="#f5f5f5" fill-opacity="1"><g transform="translate(1715.309202, 680.999918)"><g><path d="M 111.386719 6.398438 C 169.714844 6.398438 210.730469 -37.628906 210.730469 -96.335938 C 210.730469 -155.039062 169.714844 -199.066406 111.386719 -199.066406 C 53.058594 -199.066406 12.042969 -155.039062 12.042969 -96.335938 C 12.042969 -37.628906 53.058594 6.398438 111.386719 6.398438 Z M 111.386719 -34.996094 C 81.65625 -34.996094 63.21875 -59.078125 63.21875 -96.335938 C 63.21875 -133.589844 81.65625 -157.671875 111.386719 -157.671875 C 141.113281 -157.671875 159.554688 -133.589844 159.554688 -96.335938 C 159.554688 -59.078125 141.113281 -34.996094 111.386719 -34.996094 Z M 111.386719 -34.996094 "/></g></g></g><g transform="matrix(1, 0, 0, 1, 1927, 372)"><g clip-path="url(#4a1f10afaa)"><g fill="#7a8087" fill-opacity="1"><g transform="translate(0.79564, 316.250719)"><g><path d="M 195.085938 0 L 116.878906 -202.480469 L 87.019531 -202.480469 L 8.53125 0 L 36.683594 0 L 58.582031 -59.4375 L 144.464844 -59.4375 L 165.792969 0 Z M 95.269531 -159.253906 L 102.09375 -180.296875 L 108.632812 -159.253906 L 136.21875 -82.46875 L 67.113281 -82.46875 Z M 95.269531 -159.253906 "/></g></g></g><g fill="#7a8087" fill-opacity="1"><g transform="translate(204.412446, 316.250719)"><g><path d="M 50.621094 0 L 50.621094 -202.480469 L 24.171875 -202.480469 L 24.171875 0 Z M 50.621094 0 "/></g></g></g></g></g></svg>